<svg width="6" height="10" viewBox="0 0 6 10" fill="none" xmlns="http://www.w3.org/2000/svg">
<path d="M5.47918 5.00001C5.47918 5.11112 5.45834 5.2189 5.41668 5.32334C5.37501 5.42779 5.31945 5.51445 5.25001 5.58334L1.41668 9.41668C1.2639 9.56945 1.06945 9.64584 0.833343 9.64584C0.597232 9.64584 0.402788 9.56945 0.25001 9.41668C0.0972321 9.2639 0.0208435 9.06945 0.0208435 8.83334C0.0208435 8.59723 0.0972321 8.40279 0.25001 8.25001L3.50001 5.00001L0.25001 1.75001C0.0972321 1.59723 0.0208435 1.40279 0.0208435 1.16668C0.0208435 0.930566 0.0972321 0.736122 0.25001 0.583344C0.402788 0.430567 0.597232 0.354177 0.833343 0.354177C1.06945 0.354177 1.2639 0.430567 1.41668 0.583344L5.25001 4.41668C5.33334 4.50001 5.39251 4.59029 5.42751 4.68751C5.46251 4.78473 5.47973 4.8889 5.47918 5.00001Z" fill="#A8C8F8"/>
</svg>
