<svg width="20" height="20" viewBox="0 0 20 20" fill="none" xmlns="http://www.w3.org/2000/svg">
<path d="M10 17.5C8.08333 17.5 6.41306 16.8644 4.98917 15.5933C3.56528 14.3222 2.74944 12.7356 2.54167 10.8333H4.25C4.44444 12.2778 5.08694 13.4722 6.1775 14.4167C7.26806 15.3611 8.54222 15.8333 10 15.8333C11.625 15.8333 13.0036 15.2672 14.1358 14.135C15.2681 13.0028 15.8339 11.6244 15.8333 10C15.8333 8.375 15.2672 6.99639 14.135 5.86417C13.0028 4.73194 11.6244 4.16611 10 4.16667C9.04167 4.16667 8.14583 4.38889 7.3125 4.83333C6.47917 5.27778 5.77778 5.88889 5.20833 6.66667H7.5V8.33333H2.5V3.33333H4.16667V5.29167C4.875 4.40278 5.73972 3.71528 6.76083 3.22917C7.78194 2.74306 8.86167 2.5 10 2.5C11.0417 2.5 12.0175 2.69806 12.9275 3.09417C13.8375 3.49028 14.6292 4.02472 15.3025 4.6975C15.9758 5.37139 16.5106 6.16306 16.9067 7.0725C17.3028 7.98195 17.5006 8.95778 17.5 10C17.5 11.0417 17.3019 12.0175 16.9058 12.9275C16.5097 13.8375 15.9753 14.6292 15.3025 15.3025C14.6286 15.9758 13.8369 16.5106 12.9275 16.9067C12.0181 17.3028 11.0422 17.5006 10 17.5ZM12.3333 13.5L9.16667 10.3333V5.83333H10.8333V9.66667L13.5 12.3333L12.3333 13.5Z" fill="#A8C8F8"/>
</svg>
